<?xml version="1.0" encoding="UTF-8"?>
<svg id="_Слой_1" data-name="Слой 1" xmlns="http://www.w3.org/2000/svg" viewBox="0 0 124 118">
  <defs>
    <style>
      .cls-1 {
        fill: #fff;
        stroke-width: 0px;
      }
    </style>
  </defs>
  <g>
    <path class="cls-1" d="m58.5,117.5C26.47,117.23.5,91.09.5,59S26.47.77,58.5.5v117Z"/>
    <path class="cls-1" d="m58,1.01v115.98c-15.02-.26-29.16-6.29-39.93-17.06C7.06,88.92,1,74.39,1,59S7.06,29.08,18.07,18.07C28.84,7.3,42.98,1.27,58,1.01M59,0C26.63,0,0,26.63,0,59s26.63,59,59,59V0h0Z"/>
  </g>
  <rect class="cls-1" x="64" y="64" width="51" height="52"/>
  <path class="cls-1" d="m64,0c9.16,9.19,18.33,18.39,27.49,27.58,10.84,10.14,21.67,20.28,32.51,30.42h-60s0-58,0-58Z"/>
</svg>